<svg xmlns="http://www.w3.org/2000/svg" xmlns:xlink="http://www.w3.org/1999/xlink" width="500" zoomAndPan="magnify" viewBox="0 0 375 374.999991" height="500" preserveAspectRatio="xMidYMid meet" version="1.0"><defs><clipPath id="f8ed8145af"><path d="M 125 298 L 193 298 L 193 365.132812 L 125 365.132812 Z M 125 298 " clip-rule="nonzero"/></clipPath><clipPath id="f947869974"><path d="M 65 26.132812 L 94 26.132812 L 94 66 L 65 66 Z M 65 26.132812 " clip-rule="nonzero"/></clipPath></defs><path fill="#157a2c" d="M 332.96875 81.578125 C 334.097656 80.953125 335.175781 80.210938 336.085938 79.25 C 342.34375 72.777344 340.929688 61.265625 332.921875 53.519531 C 329.253906 49.96875 324.867188 47.859375 320.554688 47.1875 C 320.914062 41.914062 317.316406 35.75 310.988281 31.839844 C 302.839844 26.804688 293.320312 27.402344 289.75 33.207031 L 289.605469 33.519531 C 289.199219 33.421875 288.816406 33.304688 288.382812 33.253906 C 280.90625 32.296875 274.214844 36.371094 273.425781 42.34375 C 273.378906 42.824219 273.402344 43.28125 273.425781 43.734375 C 268.535156 42.847656 264.003906 45.007812 263.238281 48.699219 C 262.445312 52.488281 265.875 56.398438 270.910156 57.476562 C 275.4375 58.4375 279.683594 56.757812 281.097656 53.664062 C 282.488281 54.261719 283.972656 54.71875 285.601562 54.933594 C 286.65625 55.078125 287.664062 55.078125 288.671875 55.03125 C 288.597656 58.003906 290.589844 61.359375 294.015625 63.472656 C 297.277344 65.484375 300.921875 65.820312 303.535156 64.648438 C 304.300781 68.964844 306.578125 73.351562 310.269531 76.925781 C 311.203125 77.835938 312.210938 78.652344 313.242188 79.371094 C 312.90625 81.601562 313.144531 84.046875 314.03125 86.46875 C 316.382812 92.824219 322.398438 96.421875 327.480469 94.550781 C 332.058594 92.847656 334.289062 87.285156 332.96875 81.578125 Z M 276.683594 44.839844 L 276.445312 44.070312 C 275.847656 40.808594 278.699219 37.523438 282.820312 36.734375 C 283.324219 36.636719 283.804688 36.589844 284.308594 36.566406 C 280.210938 37.523438 277.453125 41.242188 278.148438 45.03125 L 278.433594 45.894531 C 278.675781 46.589844 278.988281 47.234375 279.441406 47.8125 C 278.101562 47.117188 277.164062 46.085938 276.683594 44.839844 Z M 290.011719 42.75 C 289.460938 39.800781 290.804688 36.875 293.226562 34.671875 C 294.953125 33.109375 297.230469 31.914062 299.867188 31.410156 C 300.632812 31.242188 301.398438 31.167969 302.144531 31.144531 C 299.148438 31.839844 296.675781 33.496094 294.953125 35.628906 C 293.011719 38.050781 292.027344 41.097656 292.601562 44.214844 C 292.914062 45.84375 293.609375 47.308594 294.566406 48.554688 C 292.195312 47.308594 290.492188 45.269531 290.011719 42.75 Z M 291.308594 57.070312 C 291.140625 56.230469 291.210938 55.414062 291.453125 54.621094 C 292.003906 52.917969 293.464844 51.503906 295.453125 50.929688 L 296.269531 50.714844 C 296.675781 50.640625 297.085938 50.617188 297.492188 50.617188 C 296.894531 50.738281 296.367188 50.953125 295.863281 51.21875 C 294.640625 51.863281 293.65625 52.894531 293.105469 54.144531 C 292.601562 55.292969 292.433594 56.613281 292.722656 57.957031 C 292.914062 58.914062 293.320312 59.777344 293.871094 60.523438 C 292.578125 59.753906 291.621094 58.554688 291.308594 57.070312 Z M 310.894531 59.035156 C 309.40625 60.570312 308.398438 62.390625 307.777344 64.359375 C 307.417969 61.359375 308.113281 58.460938 309.835938 56.207031 C 310.078125 55.894531 310.269531 55.558594 310.558594 55.269531 C 312.667969 53.085938 315.589844 52.128906 318.707031 52.199219 C 322.398438 52.296875 326.332031 53.878906 329.519531 56.972656 C 330.238281 57.667969 330.859375 58.386719 331.4375 59.15625 C 325.324219 53.617188 316.238281 53.496094 310.894531 59.035156 Z M 320.335938 75.703125 C 319.449219 76.132812 318.707031 76.734375 318.132812 77.429688 C 318.5625 75.988281 319.546875 74.765625 320.890625 74.09375 C 323.597656 72.800781 326.882812 74.289062 328.222656 77.429688 C 328.390625 77.8125 328.511719 78.195312 328.609375 78.578125 C 327.144531 75.511719 323.5 74.191406 320.335938 75.703125 Z M 311.613281 79.132812 L 311.636719 78.988281 C 302.8125 78.339844 292.699219 83.015625 287.183594 88.773438 C 291.476562 82.632812 295.121094 74.238281 295.648438 66.109375 C 294.808594 65.773438 293.945312 65.414062 293.152344 64.910156 C 292.074219 64.238281 291.140625 63.449219 290.324219 62.609375 C 288.289062 67.667969 286.058594 72.585938 283.636719 77.714844 C 284.957031 71.457031 282.988281 63.953125 280.089844 57.40625 C 278.988281 58.195312 277.714844 58.820312 276.253906 59.132812 C 283.589844 73.734375 276.660156 91.601562 270.019531 96.855469 L 288.671875 108.386719 C 293.296875 98.386719 301.925781 89.46875 312.140625 85.847656 C 311.46875 83.617188 311.277344 81.335938 311.613281 79.132812 Z M 311.613281 79.132812 " fill-opacity="1" fill-rule="nonzero"/><path fill="#ba9874" d="M 190.222656 145.222656 C 177.203125 155.152344 173.007812 172.851562 178.378906 179.878906 C 183.75 186.902344 194.175781 179.996094 207.191406 170.070312 C 220.207031 160.140625 230.875 150.957031 225.507812 143.929688 C 220.136719 136.878906 203.238281 135.296875 190.222656 145.222656 Z M 184.683594 161.292969 C 183.078125 166.902344 183.4375 172.226562 185.785156 175.320312 C 186.457031 176.183594 187.199219 176.808594 188.015625 177.238281 C 189.476562 177.984375 188.804688 179.085938 186.074219 178.941406 C 184.394531 178.871094 182.980469 178.175781 181.855469 176.6875 C 177.585938 171.101562 180.917969 157.046875 191.277344 149.15625 C 191.371094 149.085938 191.441406 149.035156 191.539062 148.964844 C 191.683594 148.84375 186.863281 153.570312 184.683594 161.292969 Z M 184.683594 161.292969 " fill-opacity="1" fill-rule="nonzero"/><path fill="#ba9874" d="M 204.410156 174.722656 C 206.640625 184.554688 203.019531 197.238281 212.515625 198.367188 C 231.882812 200.621094 227.183594 180.355469 219.707031 171.578125 C 218.148438 169.757812 216.515625 168.101562 214.839844 166.664062 C 212.851562 168.269531 210.765625 169.949219 208.4375 171.722656 C 207.046875 172.753906 205.730469 173.761719 204.410156 174.722656 Z M 204.410156 174.722656 " fill-opacity="1" fill-rule="nonzero"/><path fill="#f64b31" d="M 96.828125 203.640625 C 95.101562 204.121094 92.921875 204.671875 90.738281 205.128906 C 92.632812 207.933594 94.167969 211.003906 94.238281 211.171875 L 95.964844 214.675781 L 92.320312 213.308594 C 92.105469 213.210938 87.597656 211.507812 83.933594 209.613281 C 82.613281 213.28125 80.671875 216.953125 80.550781 217.144531 L 79.183594 219.6875 L 77.820312 217.121094 C 77.699219 216.902344 75.492188 212.660156 74.199219 208.75 C 70.53125 210.644531 66.050781 212.347656 65.832031 212.417969 L 62.191406 213.785156 L 63.890625 210.308594 C 63.964844 210.140625 65.496094 207.070312 67.390625 204.265625 C 63.292969 203.425781 59.097656 202.15625 58.304688 201.914062 C 48.957031 207 42.726562 215.96875 42.726562 226.207031 C 42.726562 242.085938 57.660156 254.988281 76.09375 254.988281 C 94.527344 254.988281 109.484375 242.132812 109.507812 226.257812 C 109.558594 217.070312 104.59375 208.917969 96.828125 203.640625 Z M 52.074219 211.414062 C 54.304688 208.007812 57.945312 205.871094 59.265625 205.945312 C 60.609375 206.039062 59.503906 208.128906 57.585938 211.101562 C 55.644531 214.097656 53.390625 216.902344 51.761719 217.191406 C 50.15625 217.527344 49.867188 214.792969 52.074219 211.414062 Z M 53.824219 242.925781 C 49.484375 238.511719 46.871094 232.828125 46.871094 226.59375 C 46.871094 225.34375 46.992188 224.121094 47.207031 222.921875 C 47.566406 220.910156 49.53125 219.421875 51.234375 219.589844 C 52.9375 219.757812 53.535156 221.75 53.054688 224.050781 C 52.792969 225.417969 52.625 226.832031 52.625 228.296875 C 52.625 233.5 54.445312 238.34375 57.585938 242.347656 C 62.789062 248.941406 60.894531 250.070312 53.824219 242.925781 Z M 53.824219 242.925781 " fill-opacity="1" fill-rule="nonzero"/><path fill="#157a2c" d="M 88.054688 204.050781 C 92.992188 203.28125 99.535156 201.269531 99.535156 201.269531 C 99.535156 201.269531 92.511719 199.566406 87.503906 199.109375 C 89.996094 196.160156 92.34375 191.722656 92.34375 191.722656 C 92.34375 191.722656 86.570312 193.761719 82.757812 195.777344 C 82.253906 192.804688 80.457031 188.847656 80.457031 188.847656 C 80.457031 188.847656 77.652344 192.636719 76.5 195.511719 C 72.832031 193.304688 65.832031 190.859375 65.832031 190.859375 C 65.832031 190.859375 68.183594 195.296875 70.675781 198.246094 C 65.664062 198.703125 58.640625 200.40625 58.640625 200.40625 C 58.640625 200.40625 65.1875 202.417969 70.125 203.1875 C 67.65625 206.183594 65.304688 210.980469 65.304688 210.980469 C 65.304688 210.980469 71.464844 208.65625 75.15625 206.472656 C 76.140625 210.644531 79.183594 216.402344 79.183594 216.402344 C 79.183594 216.402344 81.871094 211.414062 83.019531 207.359375 C 86.710938 209.542969 92.824219 211.84375 92.824219 211.84375 C 92.824219 211.84375 90.523438 207.070312 88.054688 204.050781 Z M 88.054688 204.050781 " fill-opacity="1" fill-rule="nonzero"/><path fill="#57a52c" d="M 349.964844 106.6875 C 354.066406 109.585938 352.9375 114.503906 352.027344 116.519531 C 350.996094 118.84375 349.820312 119.753906 350.132812 120.164062 C 350.109375 120.332031 352.21875 119.707031 353.753906 116.804688 C 355.261719 114.289062 356.175781 108.195312 351.261719 104.886719 C 346.824219 102.058594 339.347656 102.511719 337.09375 108.652344 C 337.164062 111.960938 341.550781 114 343.636719 111.648438 C 345.578125 109.898438 346.539062 107.40625 345.9375 105.078125 C 341.433594 96.324219 333.113281 100.113281 333.929688 99.921875 C 333.160156 99.898438 341.601562 97.429688 344.859375 105.390625 C 346.058594 109.132812 339.707031 113.785156 338.9375 108.699219 C 340.019531 105.605469 346.945312 104.070312 349.964844 106.6875 Z M 349.964844 106.6875 " fill-opacity="1" fill-rule="nonzero"/><path fill="#57a52c" d="M 336.109375 146.519531 C 343.683594 132.539062 350.902344 117.332031 353.152344 112.417969 C 353.730469 113.542969 354.257812 114.71875 354.257812 115.992188 C 354.257812 116.589844 354.425781 117.164062 354.664062 117.667969 C 354.617188 117.8125 354.542969 117.933594 354.496094 118.101562 C 353.011719 123.710938 353.296875 129.636719 352.746094 135.390625 C 352.148438 141.84375 351.570312 148.292969 351.09375 154.746094 C 350.996094 155.96875 351.546875 156.878906 352.316406 157.429688 C 345.601562 168.222656 334.839844 174.671875 326.691406 176.328125 C 318.058594 178.222656 312.835938 176.449219 312.90625 176.617188 C 313.699219 176.398438 327.144531 163.066406 336.109375 146.519531 Z M 336.109375 146.519531 " fill-opacity="1" fill-rule="nonzero"/><path fill="#57a52c" d="M 354.59375 112.5625 C 354.832031 111.675781 354.953125 111.097656 354.929688 110.980469 C 354.902344 110.90625 355.023438 110.953125 355.214844 111.050781 L 354.878906 112.632812 C 354.785156 112.632812 354.710938 112.585938 354.59375 112.5625 Z M 354.59375 112.5625 " fill-opacity="1" fill-rule="nonzero"/><path fill="#57a52c" d="M 354.066406 124.769531 C 354.496094 127.167969 357.011719 128.773438 359.699219 128.363281 C 359.984375 128.316406 360.273438 128.246094 360.539062 128.148438 C 360.753906 128.867188 360.96875 129.589844 361.183594 130.332031 C 360.800781 130.308594 360.417969 130.332031 360.035156 130.378906 C 356.582031 130.90625 354.089844 133.808594 354.402344 136.902344 C 354.542969 139.996094 357.492188 142.515625 360.945312 142.488281 C 361.878906 142.488281 362.71875 142.273438 363.511719 141.890625 C 363.605469 142.707031 363.675781 143.519531 363.726562 144.335938 C 362.886719 143.90625 361.925781 143.664062 360.921875 143.664062 C 357.421875 143.714844 354.664062 146.277344 354.496094 149.421875 C 354.328125 152.5625 356.894531 155.417969 360.320312 155.800781 C 361.398438 155.917969 362.40625 155.75 363.316406 155.367188 C 363.199219 156.230469 363.054688 157.09375 362.886719 157.980469 C 362.09375 157.453125 361.183594 157.09375 360.179688 156.976562 C 356.726562 156.613281 353.679688 158.871094 353.128906 161.964844 C 352.652344 165.054688 354.761719 168.175781 358.1875 168.964844 C 358.691406 169.085938 359.195312 169.109375 359.675781 169.109375 C 359.457031 169.707031 359.21875 170.308594 359.003906 170.882812 C 358.644531 170.691406 358.261719 170.523438 357.851562 170.429688 C 355.191406 169.828125 352.625 171.292969 351.957031 173.640625 C 351.285156 175.96875 352.675781 178.484375 355.121094 179.445312 C 353.824219 181.964844 352.652344 183.929688 351.789062 185.082031 C 351.691406 185.226562 351.597656 185.34375 351.5 185.464844 L 351.378906 185.34375 C 350.566406 179.710938 346.800781 164.074219 347.28125 148.964844 C 348.527344 134.144531 352.988281 118.628906 354.449219 113.089844 C 355.097656 114.238281 356.152344 116.421875 357.324219 119.300781 C 354.953125 120.1875 353.515625 122.511719 354.066406 124.769531 Z M 354.066406 124.769531 " fill-opacity="1" fill-rule="nonzero"/><path fill="#57a52c" d="M 354.929688 110.980469 C 354.449219 109.972656 375.734375 124.382812 374.296875 150.308594 C 373.144531 175.558594 351.597656 189.039062 351.402344 187.503906 L 351.402344 187.3125 C 352.722656 188.511719 365.570312 165.511719 365.117188 150.140625 C 366.722656 133.664062 355.382812 110.546875 354.855469 111.148438 Z M 354.929688 110.980469 " fill-opacity="1" fill-rule="nonzero"/><path fill="#57a52c" d="M 246.171875 78.988281 C 246.195312 78.988281 246.242188 78.964844 246.242188 78.914062 C 246.242188 78.890625 246.21875 78.867188 246.195312 78.84375 C 236.988281 77.597656 230.085938 78.554688 222.175781 80.234375 C 217.261719 81.289062 212.417969 82.585938 207.601562 83.976562 C 215.726562 75.773438 225.457031 70.089844 237.011719 70.019531 C 244.851562 69.96875 254.320312 74.144531 261.105469 78.078125 C 255.636719 83.0625 249.09375 86.851562 242 88.964844 C 231.1875 92.175781 219.273438 91.410156 208.894531 86.996094 C 213.378906 85.460938 217.90625 84 222.484375 82.753906 C 230.179688 80.691406 238.117188 79.15625 246.171875 78.988281 Z M 246.171875 78.988281 " fill-opacity="1" fill-rule="nonzero"/><path fill="#a4c52c" d="M 316.695312 135.320312 C 316.71875 135.296875 316.742188 135.296875 316.789062 135.320312 C 316.8125 135.34375 316.835938 135.390625 316.8125 135.414062 C 313.027344 141.769531 307.894531 147.09375 302.285156 151.84375 C 298.8125 154.792969 295.144531 157.503906 291.378906 160.140625 C 303.292969 160.140625 313.695312 155.128906 319.570312 146.351562 C 323.550781 140.402344 325.394531 132.777344 325.058594 124.625 C 317.554688 125.007812 310.628906 127.140625 305.042969 130.953125 C 296.535156 136.78125 291.261719 146.445312 290.253906 157.71875 C 293.992188 155.464844 297.660156 153.113281 301.136719 150.570312 C 307.035156 146.230469 312.5 141.339844 316.695312 135.320312 Z M 316.695312 135.320312 " fill-opacity="1" fill-rule="nonzero"/><path fill="#a4c52c" d="M 222.628906 230.382812 C 222.605469 230.359375 222.628906 230.308594 222.652344 230.285156 C 222.679688 230.261719 222.726562 230.261719 222.75 230.285156 C 227.640625 235.875 231.09375 242.394531 233.898438 249.183594 C 235.621094 253.402344 237.0625 257.746094 238.402344 262.109375 C 242.09375 250.765625 240.511719 239.328125 233.992188 231.027344 C 229.558594 225.394531 222.894531 221.292969 215.03125 219.109375 C 213.066406 226.375 212.96875 233.617188 214.863281 240.09375 C 217.765625 250 225.339844 258.007812 235.742188 262.445312 C 234.734375 258.199219 233.65625 253.980469 232.316406 249.878906 C 230.011719 242.949219 227.066406 236.234375 222.628906 230.382812 Z M 222.628906 230.382812 " fill-opacity="1" fill-rule="nonzero"/><path fill="#57a52c" d="M 60.414062 131.984375 C 60.390625 131.960938 60.414062 131.914062 60.441406 131.890625 C 60.464844 131.867188 60.511719 131.867188 60.535156 131.890625 C 65.425781 137.476562 68.878906 144 71.683594 150.789062 C 73.410156 155.007812 74.847656 159.347656 76.1875 163.714844 C 79.878906 152.371094 78.296875 140.929688 71.777344 132.632812 C 67.34375 127 60.679688 122.898438 52.816406 120.714844 C 50.851562 127.980469 50.753906 135.222656 52.648438 141.699219 C 55.550781 151.601562 63.125 159.613281 73.527344 164.050781 C 72.519531 159.804688 71.441406 155.582031 70.101562 151.484375 C 67.824219 144.527344 64.851562 137.835938 60.414062 131.984375 Z M 60.414062 131.984375 " fill-opacity="1" fill-rule="nonzero"/><path fill="#157a2c" d="M 222.152344 54.886719 C 222.175781 54.863281 222.199219 54.863281 222.222656 54.886719 C 222.246094 54.910156 222.246094 54.933594 222.246094 54.957031 C 218.914062 61.121094 216.0625 64.671875 211.484375 68.578125 C 208.628906 71 204.507812 73.160156 201.4375 75.34375 C 211.21875 75.320312 219.753906 71.167969 224.570312 63.953125 C 227.832031 59.058594 229.316406 52.800781 229.03125 46.085938 C 222.871094 46.421875 217.1875 48.171875 212.609375 51.335938 C 205.632812 56.132812 201.320312 64.09375 200.503906 73.351562 C 203.574219 71.480469 206.570312 69.5625 209.445312 67.453125 C 214.265625 63.878906 218.722656 59.851562 222.152344 54.886719 Z M 222.152344 54.886719 " fill-opacity="1" fill-rule="nonzero"/><path fill="#157a2c" d="M 344.667969 200.238281 C 344.667969 200.214844 344.667969 200.1875 344.644531 200.1875 C 344.621094 200.1875 344.597656 200.1875 344.597656 200.214844 C 342.054688 204.792969 340.976562 208.007812 340.351562 212.46875 C 339.96875 215.226562 340.28125 218.703125 340.136719 221.507812 C 336.230469 215.34375 335.414062 208.292969 338.027344 202.394531 C 339.800781 198.367188 343.132812 194.914062 347.472656 192.417969 C 349.75 196.425781 350.902344 200.714844 350.78125 204.867188 C 350.566406 211.195312 347.28125 217.097656 341.792969 221.316406 C 341.742188 218.628906 341.742188 215.96875 341.910156 213.332031 C 342.199219 208.824219 342.917969 204.410156 344.667969 200.238281 Z M 344.667969 200.238281 " fill-opacity="1" fill-rule="nonzero"/><path fill="#157a2c" d="M 122.046875 35.316406 C 122.070312 35.316406 122.09375 35.316406 122.09375 35.269531 C 122.09375 35.246094 122.09375 35.222656 122.070312 35.222656 C 117.15625 33.445312 113.800781 32.871094 109.316406 32.96875 C 106.535156 33.015625 103.15625 33.855469 100.375 34.167969 C 105.839844 29.320312 112.671875 27.425781 118.929688 29.082031 C 123.171875 30.210938 127.105469 32.96875 130.269531 36.851562 C 126.671875 39.730469 122.621094 41.550781 118.5 42.054688 C 112.21875 42.824219 105.867188 40.523438 100.832031 35.75 C 103.46875 35.269531 106.105469 34.863281 108.742188 34.621094 C 113.199219 34.214844 117.683594 34.261719 122.046875 35.316406 Z M 122.046875 35.316406 " fill-opacity="1" fill-rule="nonzero"/><path fill="#a4c52c" d="M 125.164062 238.632812 C 125.164062 238.605469 125.164062 238.582031 125.136719 238.582031 C 125.113281 238.582031 125.089844 238.582031 125.089844 238.582031 C 121.757812 242.613281 120.105469 245.5625 118.667969 249.832031 C 117.777344 252.46875 117.445312 255.945312 116.796875 258.65625 C 114.085938 251.867188 114.589844 244.792969 118.257812 239.46875 C 120.75 235.847656 124.660156 233.066406 129.382812 231.414062 C 130.867188 235.777344 131.226562 240.214844 130.316406 244.242188 C 128.925781 250.40625 124.636719 255.609375 118.425781 258.75 C 118.859375 256.113281 119.363281 253.5 120.03125 250.933594 C 121.136719 246.617188 122.695312 242.394531 125.164062 238.632812 Z M 125.164062 238.632812 " fill-opacity="1" fill-rule="nonzero"/><path fill="#a4c52c" d="M 26.664062 187.214844 C 26.664062 187.191406 26.640625 187.167969 26.59375 187.167969 C 26.566406 187.167969 26.542969 187.191406 26.542969 187.214844 C 26.207031 194.289062 26.832031 198.820312 28.75 204.601562 C 29.949219 208.199219 32.394531 212.203125 33.902344 215.679688 C 25.464844 210.550781 20.265625 202.515625 19.878906 193.761719 C 19.617188 187.816406 21.605469 181.628906 25.34375 175.992188 C 30.5 179.492188 34.480469 184 36.804688 189.109375 C 40.328125 196.902344 39.894531 206.039062 35.773438 214.457031 C 34.09375 211.246094 32.511719 208.007812 31.148438 204.699219 C 28.796875 199.109375 27.046875 193.28125 26.664062 187.214844 Z M 26.664062 187.214844 " fill-opacity="1" fill-rule="nonzero"/><path fill="#f64b31" d="M 284.1875 130.019531 C 283.636719 125.105469 280.542969 121.507812 275.773438 120.570312 C 271.578125 119.753906 267.3125 122.226562 265.730469 126.085938 C 264.363281 129.394531 264.507812 133.089844 264.699219 136.636719 C 260.914062 133.378906 256.933594 129.996094 252.042969 128.988281 C 247.488281 128.054688 243.148438 130.117188 241.328125 134.433594 C 239.003906 139.925781 241.566406 143.640625 245.5 147.40625 C 253.792969 155.34375 264.078125 161.101562 275.128906 164.265625 C 280.328125 154.3125 285.433594 141.195312 284.1875 130.019531 Z M 284.1875 130.019531 " fill-opacity="1" fill-rule="nonzero"/><path fill="#f68820" d="M 35.652344 157.8125 C 38.960938 154.648438 39.847656 150.308594 37.859375 146.277344 C 36.085938 142.730469 31.867188 141.003906 28.125 142.011719 C 24.9375 142.875 22.300781 145.082031 19.785156 147.214844 C 20.046875 142.585938 20.265625 137.742188 18.25 133.570312 C 16.378906 129.683594 12.402344 127.667969 8.183594 128.773438 C 2.8125 130.164062 1.542969 134.144531 1.015625 139.179688 C -0.113281 149.78125 1.46875 160.597656 5.378906 170.5 C 15.613281 168.726562 28.148438 165.054688 35.652344 157.8125 Z M 35.652344 157.8125 " fill-opacity="1" fill-rule="nonzero"/><path fill="#f6c02b" d="M 158.125 158.246094 C 156.566406 168.796875 146.785156 176.089844 136.238281 174.527344 C 125.714844 172.96875 118.425781 163.1875 119.960938 152.632812 C 120.464844 149.179688 121.878906 146.085938 123.867188 143.546875 L 123.84375 143.546875 C 132.714844 132.226562 132.449219 130.980469 132.738281 122.777344 C 132.761719 122.371094 132.785156 121.984375 132.832031 121.578125 C 133.71875 115.558594 139.304688 111.386719 145.324219 112.273438 C 151.339844 113.160156 155.511719 118.75 154.625 124.769531 C 154.550781 125.175781 154.480469 125.558594 154.382812 125.941406 C 152.296875 133.90625 151.699219 135.007812 156.949219 148.390625 L 156.925781 148.390625 C 158.171875 151.433594 158.625 154.792969 158.125 158.246094 Z M 158.125 158.246094 " fill-opacity="1" fill-rule="nonzero"/><path fill="#157a2c" d="M 122.285156 110.691406 L 122.117188 109.851562 C 122 109.347656 121.878906 108.84375 121.710938 108.339844 C 119.289062 100.835938 111.210938 96.6875 103.707031 99.132812 C 96.203125 101.554688 92.058594 109.636719 94.480469 117.140625 C 94.648438 117.644531 94.839844 118.125 95.03125 118.605469 L 95.390625 119.394531 C 98.289062 125.824219 98.648438 126.636719 96.039062 139.15625 C 95.222656 142.992188 95.4375 147 96.636719 150.738281 C 99.371094 159.207031 106.632812 164.914062 114.902344 166.113281 C 113.417969 163.378906 112.503906 160.402344 112.433594 157.335938 C 112.265625 148.941406 116.890625 143.160156 121.351562 137.550781 C 122.382812 136.253906 123.414062 134.984375 124.371094 133.664062 C 126.074219 131.339844 126.433594 128.894531 126.863281 126.039062 C 127.082031 124.671875 127.296875 123.234375 127.679688 121.746094 C 123.722656 117.597656 123.339844 115.800781 122.285156 110.691406 Z M 103.277344 153.28125 C 103.589844 154.242188 103.949219 155.128906 104.378906 156.015625 C 105.074219 157.476562 103.851562 157.046875 102.175781 154.550781 C 101.191406 153.089844 100.375 151.460938 99.800781 149.683594 C 98.722656 146.375 98.625 142.96875 99.273438 139.804688 C 102.222656 125.726562 101.429688 124.742188 98.074219 117.238281 C 97.90625 116.878906 97.761719 116.519531 97.644531 116.109375 C 96.828125 113.617188 96.972656 111.050781 97.835938 108.773438 C 99.320312 104.910156 100.855469 105.390625 100.328125 108.652344 C 100.015625 110.570312 100.160156 112.585938 100.785156 114.550781 C 100.925781 115.007812 101.09375 115.414062 101.285156 115.847656 C 105.171875 124.480469 106.082031 125.632812 102.703125 141.867188 C 101.910156 145.535156 102.03125 149.445312 103.277344 153.28125 Z M 103.277344 153.28125 " fill-opacity="1" fill-rule="nonzero"/><path fill="#157a2c" d="M 160.066406 147.191406 C 155.390625 135.296875 155.628906 134.410156 157.402344 127.621094 L 157.621094 126.78125 C 157.761719 126.277344 157.859375 125.773438 157.929688 125.246094 C 159.082031 117.453125 153.664062 110.164062 145.851562 109.011719 C 138.058594 107.859375 130.773438 113.28125 129.621094 121.097656 C 129.550781 121.625 129.5 122.128906 129.476562 122.65625 L 129.453125 123.519531 C 129.214844 130.546875 129.191406 131.457031 121.304688 141.53125 C 118.882812 144.625 117.300781 148.292969 116.722656 152.179688 C 114.925781 164.480469 123.460938 175.992188 135.78125 177.789062 C 148.101562 179.589844 159.585938 171.050781 161.382812 158.726562 C 161.933594 154.839844 161.480469 150.859375 160.066406 147.191406 Z M 158.125 158.246094 C 156.566406 168.796875 146.785156 176.089844 136.238281 174.527344 C 125.714844 172.96875 118.425781 163.1875 119.960938 152.632812 C 120.464844 149.179688 121.878906 146.085938 123.867188 143.546875 L 123.84375 143.546875 C 132.714844 132.226562 132.449219 130.980469 132.738281 122.777344 C 132.761719 122.371094 132.785156 121.984375 132.832031 121.578125 C 133.71875 115.558594 139.304688 111.386719 145.324219 112.273438 C 151.339844 113.160156 155.511719 118.75 154.625 124.769531 C 154.550781 125.175781 154.480469 125.558594 154.382812 125.941406 C 152.296875 133.90625 151.699219 135.007812 156.949219 148.390625 L 156.925781 148.390625 C 158.171875 151.433594 158.625 154.792969 158.125 158.246094 Z M 158.125 158.246094 " fill-opacity="1" fill-rule="nonzero"/><path fill="#f68820" d="M 142.207031 138.796875 C 135.230469 137.765625 128.589844 143.714844 127.367188 152.058594 C 126.144531 160.402344 130.820312 168.007812 137.769531 169.011719 C 144.746094 170.042969 151.386719 164.097656 152.609375 155.75 C 153.855469 147.40625 149.183594 139.804688 142.207031 138.796875 Z M 133.191406 149.300781 C 132.402344 150.789062 131.851562 152.492188 131.585938 154.3125 C 131.347656 155.871094 131.347656 157.40625 131.5625 158.84375 C 131.921875 161.339844 130.890625 161.195312 130.027344 158.054688 C 129.523438 156.230469 129.40625 154.242188 129.691406 152.179688 C 129.910156 150.644531 130.363281 149.230469 130.988281 147.933594 C 132.042969 145.726562 134.273438 144.167969 135.160156 144.265625 C 136.070312 144.359375 134.558594 146.734375 133.191406 149.300781 Z M 144.867188 142.464844 C 143.765625 142.296875 142.683594 142.347656 141.628906 142.539062 C 139.855469 142.875 137.9375 143.378906 137.148438 143.113281 C 136.355469 142.851562 136.910156 141.867188 138.660156 141.457031 C 139.6875 141.242188 140.769531 141.171875 141.871094 141.339844 C 142.445312 141.433594 143.019531 141.578125 143.546875 141.769531 C 144.433594 142.105469 145.058594 142.515625 144.988281 142.488281 C 144.9375 142.464844 144.890625 142.464844 144.867188 142.464844 Z M 144.867188 142.464844 " fill-opacity="1" fill-rule="nonzero"/><path fill="#157a2c" d="M 285.460938 225.25 C 279.441406 219.734375 276.039062 207.335938 276.46875 199.445312 C 278.867188 198.941406 281.480469 198.605469 283.875 198.605469 C 279.992188 206.855469 281.214844 218.078125 288.261719 224.339844 Z M 285.460938 225.25 " fill-opacity="1" fill-rule="nonzero"/><path fill="#157a2c" d="M 268.128906 211.050781 C 274.910156 211.820312 279.707031 218.894531 279.707031 218.894531 C 279.707031 218.894531 273.472656 224.769531 266.6875 224.003906 C 259.90625 223.234375 255.109375 216.136719 255.109375 216.136719 C 255.109375 216.136719 261.320312 210.285156 268.128906 211.050781 Z M 268.128906 211.050781 " fill-opacity="1" fill-rule="nonzero"/><path fill="#f64b31" d="M 297.277344 203.5 C 290.515625 205.871094 284.714844 213.476562 283.875 220.957031 C 276.351562 221.582031 268.605469 227.167969 266.042969 233.859375 C 262.734375 242.46875 269.757812 251.628906 275.847656 257.191406 C 284.90625 265.464844 298.8125 267.265625 308.78125 259.109375 C 311.011719 257.289062 312.953125 254.625 313.792969 251.75 C 316.667969 251.003906 319.402344 249.136719 321.273438 246.953125 C 329.710938 237.214844 328.320312 223.257812 320.289062 213.953125 C 314.945312 207.71875 306.003906 200.429688 297.277344 203.5 Z M 313.984375 220.691406 C 311.972656 217.527344 310.222656 214.363281 306.746094 212.492188 C 303.867188 210.933594 297.613281 209.0625 293.65625 210.332031 C 301.710938 206.207031 320.3125 210.117188 313.984375 220.691406 Z M 313.984375 220.691406 " fill-opacity="1" fill-rule="nonzero"/><path fill="#7f3068" d="M 133.863281 88.125 C 141.175781 89.46875 148.054688 90.691406 154.695312 93.136719 C 158.125 94.382812 161.480469 95.941406 164.8125 98.003906 C 167.039062 99.394531 169.484375 100.953125 172.027344 102.34375 C 172.839844 101.648438 173.847656 100.953125 174.949219 100.332031 C 172.53125 99.132812 170.109375 97.644531 167.878906 96.253906 L 166.441406 95.367188 C 163.132812 93.304688 159.632812 91.625 155.75 90.210938 C 149.0625 87.765625 142.277344 86.519531 135.085938 85.199219 L 134.414062 85.078125 C 118.785156 82.199219 117.875 74.765625 118.546875 69.441406 C 119.144531 64.621094 120.488281 60.664062 122.550781 57.546875 C 121.855469 59.394531 121.253906 61.410156 120.824219 63.640625 C 119.769531 69.226562 120.25 77.117188 136.523438 81.21875 L 137.21875 81.386719 C 144.722656 83.257812 151.820312 85.03125 158.699219 88.078125 C 162.703125 89.828125 166.273438 91.839844 169.628906 94.238281 L 171.066406 95.269531 C 172.9375 96.613281 174.976562 98.078125 177.035156 99.371094 C 177.394531 99.226562 177.730469 99.058594 178.089844 98.941406 C 176.867188 97.1875 176.03125 95.007812 175.597656 92.394531 L 175.261719 90.355469 L 177.347656 90.378906 C 177.445312 90.378906 184.058594 90.570312 188.496094 92.035156 C 188.398438 88.722656 189.261719 84.910156 191.515625 82.898438 C 187.082031 71.769531 176.414062 60.28125 168.648438 55.175781 C 152.730469 44.71875 119.457031 37.019531 115.429688 69.082031 C 113.917969 81.457031 123.4375 86.183594 133.863281 88.125 Z M 133.863281 88.125 " fill-opacity="1" fill-rule="nonzero"/><path fill="#157a2c" d="M 172.050781 104.742188 C 177.253906 107.332031 182.214844 109.417969 188.085938 108.820312 C 191.5625 108.484375 194.511719 108.4375 196.285156 111.121094 L 199.472656 108.246094 C 195.878906 104.335938 196.933594 101.457031 197.027344 99.585938 C 197.148438 97.332031 197.339844 94.238281 196.621094 92.082031 C 195.734375 89.347656 194.222656 86.492188 192.832031 84 C 190.101562 86.253906 189.8125 92.175781 190.75 95.269531 C 190.078125 93.089844 179.410156 92.105469 177.347656 92.082031 C 177.921875 95.558594 179.386719 98.917969 182.667969 100.691406 C 179.554688 98.988281 174.039062 102.417969 172.050781 104.742188 Z M 172.050781 104.742188 " fill-opacity="1" fill-rule="nonzero"/><path fill="#157a2c" d="M 134.054688 315.058594 C 133.792969 314.722656 133.480469 314.386719 133.191406 314.078125 C 126.71875 307.265625 109.84375 307.074219 101.167969 310.574219 L 99.5625 306.425781 C 109.75 302.636719 127.222656 302.183594 136.332031 310.910156 C 136.765625 311.320312 137.148438 311.773438 137.53125 312.230469 Z M 134.054688 315.058594 " fill-opacity="1" fill-rule="nonzero"/><path fill="#157a2c" d="M 137.484375 308.871094 C 133.601562 304.964844 131.203125 298.609375 130.195312 292.0625 C 129.238281 285.492188 129.667969 278.726562 132.523438 273.859375 L 136.332031 276.136719 C 134.296875 279.472656 133.671875 285.539062 134.582031 291.414062 C 135.421875 297.289062 137.796875 302.996094 140.601562 305.753906 C 140.625 305.777344 140.648438 305.804688 140.695312 305.851562 L 137.652344 309.089844 C 137.652344 309.015625 137.578125 308.945312 137.484375 308.871094 Z M 137.484375 308.871094 " fill-opacity="1" fill-rule="nonzero"/><path fill="#157a2c" d="M 133.839844 307.625 C 126.289062 299.953125 121.277344 286.691406 120.945312 278.417969 L 125.378906 278.273438 C 125.496094 284.964844 130.484375 298.128906 136.980469 304.460938 C 138.5625 306.042969 140.191406 307.195312 141.773438 307.839844 L 140.097656 311.964844 C 137.820312 311.03125 135.734375 309.496094 133.839844 307.625 Z M 133.839844 307.625 " fill-opacity="1" fill-rule="nonzero"/><path fill="#157a2c" d="M 135.925781 307.503906 C 133.625 306.089844 131.324219 304.21875 129.117188 302.015625 C 122.644531 295.5625 117.035156 286.640625 113.871094 280.671875 L 109.941406 282.757812 C 113.273438 288.992188 118.976562 298.175781 125.976562 305.15625 C 128.109375 307.265625 130.363281 309.183594 132.738281 310.742188 C 133.695312 309.59375 134.773438 308.511719 135.925781 307.503906 Z M 135.925781 307.503906 " fill-opacity="1" fill-rule="nonzero"/><path fill="#157a2c" d="M 103.371094 297 L 103.730469 292.566406 C 115.023438 293.621094 125.042969 303.332031 133.074219 308.753906 L 130.554688 312.421875 C 122.214844 306.570312 112.242188 297.625 103.371094 297 Z M 103.371094 297 " fill-opacity="1" fill-rule="nonzero"/><g clip-path="url(#f8ed8145af)"><path fill="#f68820" d="M 129.214844 302.515625 C 124.082031 307.671875 123.582031 315.683594 131.5625 325.492188 C 130.914062 324.699219 130.316406 323.910156 129.765625 323.117188 C 133.863281 319.089844 138.25 315.539062 143.691406 313.070312 C 140.625 316.234375 134.871094 320.886719 131.5625 325.492188 C 132.617188 326.785156 133.816406 328.105469 135.160156 329.472656 C 134.632812 328.945312 134.175781 328.441406 133.695312 327.914062 C 137.84375 323.8125 142.300781 320.191406 147.816406 317.648438 C 144.769531 320.792969 139.066406 325.445312 135.734375 330 C 136.453125 330.695312 137.21875 331.4375 138.105469 332.230469 C 142.183594 328.226562 146.542969 324.722656 151.9375 322.253906 C 149.015625 325.277344 143.597656 329.710938 140.214844 334.125 C 141.605469 335.324219 143.117188 336.617188 144.722656 337.9375 C 144.050781 337.386719 143.378906 336.835938 142.757812 336.308594 C 146.664062 332.542969 150.90625 329.207031 156.0625 326.859375 C 153.28125 329.734375 148.246094 333.859375 144.867188 338.058594 C 145.730469 338.777344 146.640625 339.496094 147.574219 340.238281 C 151.316406 336.738281 155.320312 333.667969 160.183594 331.4375 C 157.570312 334.125 152.96875 337.9375 149.613281 341.871094 C 149.039062 341.414062 148.460938 340.960938 147.886719 340.527344 C 149.375 341.703125 150.90625 342.902344 152.464844 344.125 C 155.964844 340.9375 159.753906 338.128906 164.285156 336.066406 C 161.863281 338.5625 157.738281 342.015625 154.480469 345.636719 C 169.628906 357.050781 187.488281 368.179688 191.277344 364.367188 C 197.078125 358.539062 167.832031 319.976562 156.15625 308.34375 C 144.507812 296.738281 135.015625 296.691406 129.214844 302.515625 Z M 175.3125 359.6875 C 174.757812 359.378906 174.207031 359.042969 173.65625 358.730469 C 175.863281 357.121094 178.1875 355.683594 180.777344 354.507812 C 179.386719 355.949219 177.371094 357.746094 175.3125 359.6875 Z M 169.84375 356.378906 C 169.246094 356.019531 168.671875 355.613281 168.046875 355.226562 C 170.660156 353.167969 173.488281 351.34375 176.652344 349.90625 C 174.949219 351.65625 172.363281 353.910156 169.84375 356.378906 Z M 164.59375 352.902344 C 163.972656 352.46875 163.347656 352.039062 162.726562 351.605469 C 165.675781 349.136719 168.863281 346.953125 172.554688 345.277344 C 170.5625 347.339844 167.449219 350.023438 164.59375 352.902344 Z M 159.488281 349.328125 C 158.84375 348.875 158.195312 348.394531 157.546875 347.914062 C 160.808594 345.058594 164.308594 342.566406 168.429688 340.695312 C 166.203125 342.972656 162.582031 346.042969 159.488281 349.328125 Z M 159.488281 349.328125 " fill-opacity="1" fill-rule="nonzero"/></g><path fill="#57a52c" d="M 84.53125 72.945312 C 88.679688 68.554688 92.5625 67.691406 98.316406 67.957031 C 90.546875 64.503906 82.996094 63.039062 75.253906 66.683594 C 69.621094 69.324219 63.171875 73.617188 61.136719 79.828125 C 59.9375 83.519531 59.839844 88.867188 64.660156 89.277344 C 72.28125 89.875 78.128906 79.707031 84.53125 72.945312 Z M 84.53125 72.945312 " fill-opacity="1" fill-rule="nonzero"/><path fill="#57a52c" d="M 53.863281 93.148438 L 60.257812 80.152344 L 66.710938 83.328125 L 60.316406 96.324219 Z M 53.863281 93.148438 " fill-opacity="1" fill-rule="nonzero"/><path fill="#57a52c" d="M 69.019531 41.671875 C 66.839844 38.554688 64.203125 35.703125 62.214844 33.6875 C 63.554688 37.453125 63.578125 40.449219 63.027344 43.6875 C 63.964844 44.527344 64.800781 45.414062 65.59375 46.300781 C 66.695312 44.71875 67.824219 43.183594 69.019531 41.671875 Z M 69.019531 41.671875 " fill-opacity="1" fill-rule="nonzero"/><path fill="#57a52c" d="M 90.117188 64.144531 C 92.609375 62.03125 95.390625 60.304688 98.769531 60.164062 C 96.0625 58.675781 92.730469 57.835938 89.324219 57.546875 C 88.679688 59.660156 87.957031 61.722656 87.214844 63.6875 C 88.152344 63.785156 89.132812 63.925781 90.117188 64.144531 Z M 90.117188 64.144531 " fill-opacity="1" fill-rule="nonzero"/><path fill="#57a52c" d="M 70.554688 69.96875 C 71.730469 63.519531 71.683594 58.21875 69.308594 53.757812 C 65.785156 47.164062 61.949219 42.488281 50.996094 37.402344 C 66.023438 51.023438 44.644531 70.808594 54.972656 83.664062 C 64.515625 95.535156 69.382812 76.445312 70.554688 69.96875 Z M 57.753906 83.351562 C 57.417969 83.015625 57.109375 82.65625 56.773438 82.226562 C 52.722656 77.1875 54.445312 70.738281 56.460938 63.28125 C 56.796875 62.03125 57.492188 59.996094 57.96875 57.957031 C 58.664062 54.980469 58.234375 52.800781 58.402344 53.183594 C 58.496094 53.421875 58.570312 53.640625 58.640625 53.878906 C 60.558594 59.515625 58.355469 64.503906 57.898438 70.402344 C 57.277344 78.125 58.332031 83.953125 57.753906 83.351562 Z M 57.753906 83.351562 " fill-opacity="1" fill-rule="nonzero"/><path fill="#157a2c" d="M 180.058594 227.023438 C 182.621094 225.824219 191.777344 223.8125 189.789062 220.140625 C 187.25 215.417969 176.199219 222.109375 173.945312 224.386719 C 170.683594 217.886719 175.144531 211.867188 173.226562 205.753906 C 170.300781 196.398438 160.664062 201.988281 160.878906 210.238281 C 151.652344 197.09375 133.648438 209.324219 146.472656 217.648438 C 153.375 222.109375 157.117188 219.492188 164.257812 222.445312 C 170.0625 224.84375 171.59375 228.558594 172.074219 233.140625 C 172.3125 233.117188 172.578125 233.140625 172.839844 233.210938 C 175 233.8125 177.203125 234.21875 178.835938 235.632812 C 181.304688 234.984375 184.203125 235.035156 187.222656 234.792969 C 201.632812 233.667969 188.6875 226.328125 180.058594 227.023438 Z M 180.058594 227.023438 " fill-opacity="1" fill-rule="nonzero"/><path fill="#7f3068" d="M 174.039062 232.300781 C 163.949219 229.300781 153.570312 234.289062 150.859375 243.453125 C 146.976562 256.570312 161.957031 260.957031 159.847656 278.082031 C 167.039062 263.234375 183.003906 269.0625 187.390625 254.292969 C 190.101562 245.152344 184.132812 235.296875 174.039062 232.300781 Z M 153.351562 246.855469 C 153.015625 247.960938 152.898438 248.992188 152.824219 249.972656 C 152.441406 248.199219 152.464844 246.304688 153.113281 244.121094 C 155.460938 236.234375 164.546875 231.941406 173.367188 234.554688 C 174.640625 234.9375 175.8125 235.441406 176.917969 236.042969 C 166.417969 233.332031 155.964844 238.054688 153.351562 246.855469 Z M 153.351562 246.855469 " fill-opacity="1" fill-rule="nonzero"/><path fill="#f64b31" d="M 42.484375 88.773438 C 42.003906 88.554688 41.503906 88.339844 41 88.101562 C 41.070312 90.019531 40.902344 91.816406 40.878906 91.914062 L 40.617188 94.695312 L 38.9375 92.464844 C 38.839844 92.34375 36.921875 89.777344 35.558594 87.453125 C 33.617188 88.675781 31.363281 89.636719 31.242188 89.683594 L 29.636719 90.355469 L 29.730469 88.605469 C 29.757812 88.460938 29.925781 85.65625 30.523438 83.304688 C 27.886719 82.777344 24.84375 81.839844 24.699219 81.792969 L 22.039062 80.953125 L 24.554688 79.777344 C 24.652344 79.730469 26.28125 78.964844 28.101562 78.386719 C 27.816406 78.101562 27.527344 77.789062 27.238281 77.476562 C 21.460938 76.492188 15.804688 78.269531 12.6875 82.65625 C 8.039062 89.25 5.738281 106.445312 13.839844 112.175781 C 21.941406 117.910156 37.378906 109.996094 42.03125 103.375 C 44.976562 99.226562 44.953125 93.710938 42.484375 88.773438 Z M 26.351562 87.621094 C 26.664062 87.835938 26.519531 88.582031 26.015625 89.277344 C 25.539062 89.972656 24.890625 90.355469 24.578125 90.140625 C 24.265625 89.921875 24.410156 89.179688 24.914062 88.484375 C 25.417969 87.789062 26.066406 87.40625 26.351562 87.621094 Z M 18.082031 99.347656 C 18.394531 99.5625 18.25 100.308594 17.746094 101.003906 C 17.242188 101.699219 16.597656 102.082031 16.308594 101.867188 C 15.996094 101.648438 16.140625 100.90625 16.644531 100.210938 C 17.125 99.539062 17.769531 99.132812 18.082031 99.347656 Z M 18.5625 90.738281 C 18.875 90.953125 18.730469 91.699219 18.226562 92.394531 C 17.722656 93.089844 17.074219 93.472656 16.789062 93.257812 C 16.476562 93.039062 16.621094 92.296875 17.125 91.601562 C 17.601562 90.90625 18.25 90.523438 18.5625 90.738281 Z M 12.328125 97.742188 C 11.707031 97.691406 11.226562 97.117188 10.960938 96.085938 C 10.125 92.609375 12.542969 86.878906 14.511719 84.09375 C 16.5 81.265625 19.234375 80.355469 21.054688 80.089844 C 17.265625 82.34375 15.734375 87.644531 15.0625 91.722656 C 14.820312 93.257812 15.109375 95.941406 13.792969 97.09375 C 13.265625 97.574219 12.761719 97.789062 12.328125 97.742188 Z M 15.375 109.875 C 15.0625 109.660156 15.207031 108.917969 15.710938 108.222656 C 16.1875 107.523438 16.835938 107.140625 17.148438 107.359375 C 17.460938 107.574219 17.292969 108.316406 16.8125 109.011719 C 16.332031 109.707031 15.683594 110.089844 15.375 109.875 Z M 23.667969 98.125 C 23.355469 97.910156 23.5 97.164062 24.003906 96.46875 C 24.507812 95.773438 25.128906 95.390625 25.441406 95.605469 C 25.753906 95.824219 25.609375 96.566406 25.105469 97.261719 C 24.625 97.957031 23.980469 98.339844 23.667969 98.125 Z M 23.1875 106.757812 C 22.875 106.542969 23.019531 105.796875 23.523438 105.101562 C 24.003906 104.40625 24.652344 104.023438 24.960938 104.238281 C 25.273438 104.457031 25.105469 105.199219 24.625 105.894531 C 24.148438 106.566406 23.5 106.972656 23.1875 106.757812 Z M 31.480469 95.007812 C 31.171875 94.792969 31.316406 94.046875 31.816406 93.351562 C 32.320312 92.65625 32.96875 92.273438 33.257812 92.488281 C 33.566406 92.703125 33.425781 93.449219 32.921875 94.144531 C 32.441406 94.839844 31.792969 95.222656 31.480469 95.007812 Z M 30.570312 102.992188 C 30.257812 102.777344 30.402344 102.035156 30.90625 101.339844 C 31.410156 100.644531 32.035156 100.257812 32.34375 100.476562 C 32.65625 100.691406 32.511719 101.433594 32.007812 102.128906 C 31.53125 102.824219 30.882812 103.207031 30.570312 102.992188 Z M 38.386719 99.875 C 38.074219 99.660156 38.21875 98.917969 38.722656 98.21875 C 39.226562 97.523438 39.847656 97.140625 40.160156 97.355469 C 40.472656 97.574219 40.328125 98.316406 39.824219 99.011719 C 39.320312 99.707031 38.671875 100.089844 38.386719 99.875 Z M 38.386719 99.875 " fill-opacity="1" fill-rule="nonzero"/><path fill="#157a2c" d="M 39.777344 86.300781 C 42.726562 87.835938 46.992188 89.417969 46.992188 89.417969 C 46.992188 89.417969 43.707031 85.917969 41.117188 83.761719 C 43.46875 83.328125 46.226562 82.152344 46.226562 82.152344 C 46.226562 82.152344 42.390625 80.882812 39.609375 80.355469 C 40.304688 78.773438 40.640625 76.207031 40.640625 76.207031 C 40.640625 76.207031 37.859375 76.902344 36.253906 77.8125 C 34.957031 75.34375 31.960938 71.503906 31.960938 71.503906 C 31.960938 71.503906 31.769531 74.503906 32.152344 76.851562 C 29.253906 75.152344 24.84375 73.207031 24.84375 73.207031 C 24.84375 73.207031 27.765625 76.710938 30.210938 78.964844 C 27.863281 79.417969 24.984375 80.761719 24.984375 80.761719 C 24.984375 80.761719 29.132812 82.058594 31.890625 82.464844 C 31.050781 84.792969 30.8125 88.675781 30.8125 88.675781 C 30.8125 88.675781 33.925781 87.355469 35.917969 85.917969 C 37.210938 88.363281 39.800781 91.816406 39.800781 91.816406 C 39.800781 91.816406 40.136719 88.652344 39.777344 86.300781 Z M 39.777344 86.300781 " fill-opacity="1" fill-rule="nonzero"/><path fill="#57a52c" d="M 244.300781 179.710938 C 240.632812 185.058594 240.128906 192.109375 242.839844 198.894531 C 243.484375 196.160156 243.820312 192.707031 244.707031 190.070312 C 246.144531 185.800781 247.800781 182.851562 251.132812 178.820312 C 251.132812 178.796875 251.179688 178.796875 251.179688 178.820312 C 251.203125 178.847656 251.203125 178.847656 251.203125 178.871094 C 248.734375 182.636719 247.175781 186.855469 246.050781 191.171875 C 245.378906 193.738281 244.898438 196.351562 244.445312 198.988281 C 250.628906 195.847656 254.945312 190.667969 256.332031 184.480469 C 257.246094 180.429688 256.886719 176.015625 255.398438 171.652344 C 250.699219 173.304688 246.769531 176.089844 244.300781 179.710938 Z M 244.300781 179.710938 " fill-opacity="1" fill-rule="nonzero"/><path fill="#f6c02b" d="M 192.523438 299.257812 C 192.714844 299.160156 192.90625 299.136719 193.074219 299.136719 C 200.410156 297.671875 209.519531 295.898438 218.484375 290.984375 C 225.722656 287.359375 231.859375 282.683594 236.988281 278.585938 C 231.980469 281.175781 225.21875 285.394531 216.132812 286.449219 C 201.007812 289.160156 191.371094 283.667969 186.839844 285.441406 C 184.660156 286.496094 184.777344 292.347656 190.914062 297.890625 C 191.394531 298.394531 191.96875 298.777344 192.523438 299.257812 Z M 192.523438 299.257812 " fill-opacity="1" fill-rule="nonzero"/><path fill="#f6c02b" d="M 230.78125 304.4375 C 239.050781 296.523438 249.214844 285.132812 250.675781 271.605469 C 244.277344 274.867188 234.136719 286.042969 219.730469 293.261719 C 201.824219 303.09375 183.246094 300.863281 181.085938 306.667969 C 180.226562 309.28125 184.300781 313.8125 193.386719 316.59375 C 199.042969 318.367188 206.785156 318.847656 215.03125 317.289062 C 219.945312 313.835938 225.675781 309.617188 230.78125 304.4375 Z M 230.78125 304.4375 " fill-opacity="1" fill-rule="nonzero"/><path fill="#f6c02b" d="M 260.480469 262.398438 C 257.148438 262.492188 256.023438 261.917969 252.808594 261.84375 C 256.621094 280.671875 243.078125 296.234375 232.625 306.257812 C 219.320312 319.855469 202.492188 326.1875 203.40625 331.894531 C 203.382812 336.980469 226.800781 339.738281 246.746094 320.289062 C 254.199219 312.78125 260.027344 302.398438 260.648438 291.605469 C 260.9375 287.242188 260.167969 283.210938 259.425781 278.945312 C 259.210938 277.433594 258.441406 262.445312 260.480469 262.398438 Z M 260.480469 262.398438 " fill-opacity="1" fill-rule="nonzero"/><path fill="#f6c02b" d="M 50.972656 37.402344 C 50.972656 37.402344 50.996094 37.402344 50.996094 37.429688 C 50.996094 37.378906 50.972656 37.378906 50.972656 37.402344 C 50.777344 37.285156 50.777344 37.285156 50.972656 37.402344 Z M 50.972656 37.402344 " fill-opacity="1" fill-rule="nonzero"/><g clip-path="url(#f947869974)"><path fill="#f6c02b" d="M 86.042969 63.542969 C 86.328125 63.566406 86.664062 63.617188 86.953125 63.640625 C 87.046875 63.640625 87.121094 63.664062 87.214844 63.664062 C 87.957031 61.695312 88.679688 59.632812 89.324219 57.523438 C 93.449219 44.144531 95.246094 29.105469 89.996094 26.515625 C 87.046875 25.078125 82.375 27.738281 77.410156 32.390625 C 78.011719 32.007812 78.945312 32.03125 79.832031 32.464844 C 81.03125 33.039062 81.65625 34.191406 81.246094 35.003906 C 80.839844 35.820312 79.542969 36.011719 78.371094 35.4375 C 77.171875 34.863281 76.546875 33.710938 76.957031 32.894531 C 77.050781 32.703125 77.21875 32.535156 77.410156 32.390625 C 74.628906 34.980469 71.753906 38.21875 69.019531 41.671875 C 67.847656 43.183594 66.695312 44.71875 65.59375 46.277344 C 65.640625 46.324219 65.664062 46.371094 65.714844 46.421875 C 65.808594 46.515625 65.882812 46.636719 65.976562 46.734375 C 66.984375 46.207031 68.519531 46.230469 69.957031 46.925781 C 71.992188 47.933594 73.074219 49.875 72.378906 51.289062 C 71.96875 52.128906 71.011719 52.558594 69.882812 52.585938 C 70.003906 52.800781 70.125 53.039062 70.242188 53.253906 C 70.769531 54.261719 71.203125 55.316406 71.539062 56.445312 C 72.546875 56.011719 73.960938 56.109375 75.277344 56.757812 C 77.316406 57.765625 78.394531 59.707031 77.699219 61.097656 C 77.003906 62.511719 74.796875 62.824219 72.785156 61.839844 C 72.617188 61.769531 72.472656 61.671875 72.328125 61.578125 C 72.351562 61.890625 72.351562 62.199219 72.378906 62.535156 C 72.402344 62.558594 72.425781 62.558594 72.449219 62.558594 C 73.910156 63.28125 74.871094 64.503906 75.039062 65.652344 C 76.355469 65.03125 77.699219 64.597656 79.066406 64.238281 C 78.441406 63.351562 78.25 62.367188 78.632812 61.578125 C 79.328125 60.164062 81.535156 59.851562 83.570312 60.859375 C 84.84375 61.480469 85.730469 62.511719 86.042969 63.542969 Z M 89.949219 52.175781 C 89.277344 53.542969 87.359375 54 85.707031 53.160156 C 84.027344 52.34375 83.210938 50.546875 83.90625 49.179688 C 84.578125 47.8125 86.496094 47.355469 88.152344 48.195312 C 89.828125 49.035156 90.644531 50.808594 89.949219 52.175781 Z M 91.625 46.207031 C 91.171875 47.164062 89.660156 47.378906 88.292969 46.707031 C 86.929688 46.011719 86.183594 44.695312 86.664062 43.757812 C 87.121094 42.800781 88.628906 42.582031 89.996094 43.253906 C 91.363281 43.925781 92.082031 45.246094 91.625 46.207031 Z M 92.777344 40.6875 C 92.371094 41.503906 91.074219 41.695312 89.875 41.121094 C 88.679688 40.546875 88.054688 39.394531 88.460938 38.578125 C 88.871094 37.761719 90.164062 37.570312 91.339844 38.148438 C 92.539062 38.722656 93.183594 39.875 92.777344 40.6875 Z M 92.800781 36.15625 C 92.488281 36.78125 91.53125 36.925781 90.644531 36.46875 C 89.757812 36.035156 89.277344 35.171875 89.589844 34.574219 C 89.902344 33.949219 90.859375 33.832031 91.746094 34.261719 C 92.632812 34.671875 93.113281 35.535156 92.800781 36.15625 Z M 87.71875 27.308594 C 88.03125 26.683594 88.988281 26.539062 89.875 26.996094 C 90.761719 27.425781 91.242188 28.292969 90.929688 28.890625 C 90.621094 29.515625 89.660156 29.65625 88.773438 29.203125 C 87.886719 28.769531 87.40625 27.90625 87.71875 27.308594 Z M 85.035156 30.546875 C 85.515625 29.5625 87.070312 29.320312 88.511719 30.042969 C 89.949219 30.738281 90.714844 32.105469 90.210938 33.109375 C 89.734375 34.09375 88.175781 34.335938 86.734375 33.613281 C 85.320312 32.917969 84.554688 31.550781 85.035156 30.546875 Z M 86.425781 34.359375 C 88.199219 35.222656 89.132812 36.925781 88.535156 38.148438 C 87.933594 39.371094 86.015625 39.65625 84.242188 38.792969 C 82.46875 37.90625 81.535156 36.230469 82.132812 34.980469 C 82.734375 33.757812 84.652344 33.496094 86.425781 34.359375 Z M 80.527344 30.089844 C 80.839844 29.464844 81.796875 29.320312 82.683594 29.777344 C 83.570312 30.210938 84.050781 31.074219 83.738281 31.671875 C 83.429688 32.296875 82.46875 32.441406 81.582031 31.984375 C 80.695312 31.578125 80.214844 30.714844 80.527344 30.089844 Z M 78.898438 40.113281 C 79.59375 38.699219 81.796875 38.386719 83.835938 39.371094 C 85.875 40.378906 86.953125 42.320312 86.257812 43.734375 C 85.5625 45.125 83.355469 45.460938 81.34375 44.453125 C 79.28125 43.445312 78.203125 41.503906 78.898438 40.113281 Z M 83.402344 49.515625 C 82.710938 50.929688 80.503906 51.242188 78.488281 50.234375 C 76.453125 49.226562 75.375 47.285156 76.070312 45.894531 C 76.765625 44.476562 78.96875 44.167969 81.007812 45.148438 C 82.996094 46.179688 84.074219 48.125 83.402344 49.515625 Z M 73.289062 37.164062 C 73.769531 36.203125 75.253906 35.988281 76.621094 36.660156 C 77.988281 37.332031 78.730469 38.652344 78.25 39.609375 C 77.769531 40.570312 76.308594 40.785156 74.917969 40.113281 C 73.550781 39.441406 72.808594 38.125 73.289062 37.164062 Z M 71.371094 46.109375 C 69.789062 45.339844 68.996094 43.6875 69.476562 42.367188 C 69.476562 42.367188 69.5 42.34375 69.5 42.34375 C 69.5 42.34375 69.5 42.320312 69.5 42.320312 C 69.523438 42.273438 69.523438 42.199219 69.574219 42.128906 C 70.242188 40.761719 72.160156 40.304688 73.816406 41.144531 C 75.492188 41.960938 76.308594 43.757812 75.613281 45.125 C 74.941406 46.492188 73.023438 46.949219 71.371094 46.109375 Z M 80.550781 55.316406 C 79.855469 56.734375 77.652344 57.042969 75.636719 56.039062 C 73.601562 55.03125 72.519531 53.085938 73.214844 51.695312 C 73.910156 50.28125 76.117188 49.96875 78.15625 50.953125 C 80.144531 51.960938 81.222656 53.925781 80.550781 55.316406 Z M 83.429688 59.898438 C 81.390625 58.890625 80.3125 56.949219 81.007812 55.558594 C 81.703125 54.144531 83.90625 53.832031 85.945312 54.839844 C 87.984375 55.84375 89.0625 57.789062 88.367188 59.203125 C 87.648438 60.570312 85.441406 60.90625 83.429688 59.898438 Z M 83.429688 59.898438 " fill-opacity="1" fill-rule="nonzero"/></g><path fill="#f64b31" d="M 245.066406 46.0625 C 248.640625 46.0625 251.539062 43.160156 251.539062 39.585938 C 251.539062 36.011719 248.640625 33.109375 245.066406 33.109375 C 241.496094 33.109375 238.59375 36.011719 238.59375 39.585938 C 238.59375 43.160156 241.496094 46.0625 245.066406 46.0625 Z M 245.066406 46.0625 " fill-opacity="1" fill-rule="nonzero"/><path fill="#f68820" d="M 246.648438 63.542969 C 248.398438 63.542969 249.835938 62.128906 249.835938 60.355469 C 249.835938 58.601562 248.398438 57.164062 246.648438 57.164062 C 244.898438 57.164062 243.460938 58.578125 243.460938 60.355469 C 243.460938 62.128906 244.875 63.542969 246.648438 63.542969 Z M 246.648438 63.542969 " fill-opacity="1" fill-rule="nonzero"/><path fill="#f64b31" d="M 357.757812 78.605469 C 354.234375 78.605469 351.402344 81.457031 351.402344 84.957031 C 351.402344 88.484375 354.257812 91.3125 357.757812 91.3125 C 361.257812 91.3125 364.109375 88.460938 364.109375 84.957031 C 364.132812 81.457031 361.28125 78.605469 357.757812 78.605469 Z M 357.757812 78.605469 " fill-opacity="1" fill-rule="nonzero"/><path fill="#f68820" d="M 367.273438 99.011719 C 365.523438 99.011719 364.109375 100.425781 364.109375 102.175781 C 364.109375 103.929688 365.523438 105.34375 367.273438 105.34375 C 369.023438 105.34375 370.4375 103.929688 370.4375 102.175781 C 370.4375 100.425781 369.023438 99.011719 367.273438 99.011719 Z M 367.273438 99.011719 " fill-opacity="1" fill-rule="nonzero"/><path fill="#f6c02b" d="M 292.265625 174.722656 C 290.0625 174.722656 288.261719 176.519531 288.261719 178.726562 C 288.261719 180.933594 290.0625 182.730469 292.265625 182.730469 C 294.472656 182.730469 296.269531 180.933594 296.269531 178.726562 C 296.269531 176.519531 294.496094 174.722656 292.265625 174.722656 Z M 292.265625 174.722656 " fill-opacity="1" fill-rule="nonzero"/><path fill="#f68820" d="M 279.683594 277.648438 C 276.421875 277.648438 273.761719 280.285156 273.761719 283.570312 C 273.761719 286.859375 276.398438 289.496094 279.683594 289.496094 C 282.941406 289.496094 285.601562 286.859375 285.601562 283.570312 C 285.601562 280.285156 282.941406 277.648438 279.683594 277.648438 Z M 279.683594 277.648438 " fill-opacity="1" fill-rule="nonzero"/><path fill="#f6c02b" d="M 164.308594 291.917969 C 164.308594 292.316406 164.230469 292.699219 164.078125 293.066406 C 163.925781 293.433594 163.710938 293.757812 163.429688 294.039062 C 163.148438 294.320312 162.824219 294.535156 162.457031 294.6875 C 162.089844 294.839844 161.707031 294.914062 161.3125 294.914062 C 160.914062 294.914062 160.53125 294.839844 160.164062 294.6875 C 159.796875 294.535156 159.472656 294.320312 159.191406 294.039062 C 158.910156 293.757812 158.695312 293.433594 158.542969 293.066406 C 158.390625 292.699219 158.316406 292.316406 158.316406 291.917969 C 158.316406 291.519531 158.390625 291.136719 158.542969 290.769531 C 158.695312 290.402344 158.910156 290.078125 159.191406 289.796875 C 159.472656 289.515625 159.796875 289.300781 160.164062 289.148438 C 160.53125 288.996094 160.914062 288.921875 161.3125 288.921875 C 161.707031 288.921875 162.089844 288.996094 162.457031 289.148438 C 162.824219 289.300781 163.148438 289.515625 163.429688 289.796875 C 163.710938 290.078125 163.925781 290.402344 164.078125 290.769531 C 164.230469 291.136719 164.308594 291.519531 164.308594 291.917969 Z M 164.308594 291.917969 " fill-opacity="1" fill-rule="nonzero"/><path fill="#57a52c" d="M 90.402344 266.304688 C 87.144531 266.304688 84.507812 268.945312 84.507812 272.203125 C 84.507812 275.464844 87.144531 278.105469 90.402344 278.105469 C 93.664062 278.105469 96.300781 275.464844 96.300781 272.203125 C 96.300781 268.945312 93.664062 266.304688 90.402344 266.304688 Z M 90.402344 266.304688 " fill-opacity="1" fill-rule="nonzero"/><path fill="#f68820" d="M 135.253906 193.738281 C 135.253906 194.0625 135.222656 194.378906 135.160156 194.699219 C 135.097656 195.015625 135.003906 195.320312 134.878906 195.621094 C 134.757812 195.917969 134.605469 196.199219 134.425781 196.46875 C 134.246094 196.738281 134.042969 196.984375 133.816406 197.214844 C 133.585938 197.441406 133.339844 197.644531 133.070312 197.824219 C 132.800781 198.003906 132.519531 198.15625 132.222656 198.28125 C 131.921875 198.402344 131.617188 198.496094 131.300781 198.558594 C 130.984375 198.621094 130.664062 198.65625 130.339844 198.65625 C 130.015625 198.65625 129.699219 198.621094 129.382812 198.558594 C 129.066406 198.496094 128.757812 198.402344 128.460938 198.28125 C 128.160156 198.15625 127.878906 198.003906 127.609375 197.824219 C 127.34375 197.644531 127.09375 197.441406 126.867188 197.214844 C 126.636719 196.984375 126.433594 196.738281 126.253906 196.46875 C 126.074219 196.199219 125.921875 195.917969 125.800781 195.621094 C 125.675781 195.320312 125.582031 195.015625 125.519531 194.699219 C 125.457031 194.378906 125.425781 194.0625 125.425781 193.738281 C 125.425781 193.414062 125.457031 193.09375 125.519531 192.777344 C 125.582031 192.460938 125.675781 192.15625 125.800781 191.855469 C 125.921875 191.558594 126.074219 191.273438 126.253906 191.007812 C 126.433594 190.738281 126.636719 190.488281 126.867188 190.261719 C 127.09375 190.035156 127.34375 189.828125 127.609375 189.652344 C 127.878906 189.472656 128.160156 189.320312 128.460938 189.195312 C 128.757812 189.074219 129.066406 188.980469 129.382812 188.917969 C 129.699219 188.851562 130.015625 188.820312 130.339844 188.820312 C 130.664062 188.820312 130.984375 188.851562 131.300781 188.917969 C 131.617188 188.980469 131.921875 189.074219 132.222656 189.195312 C 132.519531 189.320312 132.800781 189.472656 133.070312 189.652344 C 133.339844 189.828125 133.585938 190.035156 133.816406 190.261719 C 134.042969 190.488281 134.246094 190.738281 134.425781 191.007812 C 134.605469 191.273438 134.757812 191.558594 134.878906 191.855469 C 135.003906 192.15625 135.097656 192.460938 135.160156 192.777344 C 135.222656 193.09375 135.253906 193.414062 135.253906 193.738281 Z M 135.253906 193.738281 " fill-opacity="1" fill-rule="nonzero"/><path fill="#f6c02b" d="M 86.929688 168.582031 C 86.929688 169.660156 87.792969 170.523438 88.871094 170.523438 C 89.949219 170.523438 90.8125 169.660156 90.8125 168.582031 C 90.8125 167.503906 89.949219 166.640625 88.871094 166.640625 C 87.792969 166.640625 86.929688 167.503906 86.929688 168.582031 Z M 86.929688 168.582031 " fill-opacity="1" fill-rule="nonzero"/><path fill="#f68820" d="M 76.164062 108.890625 C 76.164062 109.203125 76.132812 109.507812 76.074219 109.8125 C 76.015625 110.117188 75.925781 110.414062 75.804688 110.699219 C 75.6875 110.988281 75.542969 111.257812 75.367188 111.515625 C 75.195312 111.773438 75 112.011719 74.78125 112.234375 C 74.5625 112.453125 74.324219 112.648438 74.066406 112.820312 C 73.808594 112.992188 73.535156 113.136719 73.25 113.257812 C 72.964844 113.375 72.667969 113.464844 72.363281 113.527344 C 72.058594 113.585938 71.753906 113.617188 71.441406 113.617188 C 71.132812 113.617188 70.824219 113.585938 70.519531 113.527344 C 70.21875 113.464844 69.921875 113.375 69.636719 113.257812 C 69.347656 113.136719 69.078125 112.992188 68.820312 112.820312 C 68.5625 112.648438 68.324219 112.453125 68.101562 112.234375 C 67.882812 112.011719 67.6875 111.773438 67.515625 111.515625 C 67.34375 111.257812 67.199219 110.988281 67.078125 110.699219 C 66.960938 110.414062 66.871094 110.117188 66.8125 109.8125 C 66.75 109.507812 66.71875 109.203125 66.71875 108.890625 C 66.71875 108.582031 66.75 108.273438 66.8125 107.96875 C 66.871094 107.667969 66.960938 107.371094 67.078125 107.085938 C 67.199219 106.796875 67.34375 106.527344 67.515625 106.265625 C 67.6875 106.007812 67.882812 105.769531 68.101562 105.550781 C 68.324219 105.332031 68.5625 105.136719 68.820312 104.964844 C 69.078125 104.792969 69.347656 104.644531 69.636719 104.527344 C 69.921875 104.410156 70.21875 104.320312 70.519531 104.257812 C 70.824219 104.199219 71.132812 104.167969 71.441406 104.167969 C 71.753906 104.167969 72.058594 104.199219 72.363281 104.257812 C 72.667969 104.320312 72.964844 104.410156 73.25 104.527344 C 73.535156 104.644531 73.808594 104.792969 74.066406 104.964844 C 74.324219 105.136719 74.5625 105.332031 74.78125 105.550781 C 75 105.769531 75.195312 106.007812 75.367188 106.265625 C 75.542969 106.527344 75.6875 106.796875 75.804688 107.085938 C 75.925781 107.371094 76.015625 107.667969 76.074219 107.96875 C 76.132812 108.273438 76.164062 108.582031 76.164062 108.890625 Z M 76.164062 108.890625 " fill-opacity="1" fill-rule="nonzero"/><path fill="#f68820" d="M 197.628906 128.054688 C 197.628906 128.3125 197.578125 128.566406 197.476562 128.804688 C 197.378906 129.046875 197.238281 129.257812 197.050781 129.445312 C 196.867188 129.628906 196.65625 129.769531 196.414062 129.871094 C 196.171875 129.96875 195.921875 130.019531 195.664062 130.019531 C 195.402344 130.019531 195.152344 129.96875 194.910156 129.871094 C 194.667969 129.769531 194.457031 129.628906 194.273438 129.445312 C 194.089844 129.257812 193.945312 129.046875 193.847656 128.804688 C 193.746094 128.566406 193.695312 128.3125 193.695312 128.054688 C 193.695312 127.792969 193.746094 127.542969 193.847656 127.300781 C 193.945312 127.058594 194.089844 126.847656 194.273438 126.664062 C 194.457031 126.476562 194.667969 126.335938 194.910156 126.238281 C 195.152344 126.136719 195.402344 126.085938 195.664062 126.085938 C 195.921875 126.085938 196.171875 126.136719 196.414062 126.238281 C 196.65625 126.335938 196.867188 126.476562 197.050781 126.664062 C 197.238281 126.847656 197.378906 127.058594 197.476562 127.300781 C 197.578125 127.542969 197.628906 127.792969 197.628906 128.054688 Z M 197.628906 128.054688 " fill-opacity="1" fill-rule="nonzero"/><path fill="#f6c02b" d="M 235.839844 113.328125 C 235.839844 113.621094 235.808594 113.910156 235.753906 114.199219 C 235.695312 114.484375 235.609375 114.765625 235.5 115.035156 C 235.386719 115.304688 235.25 115.5625 235.085938 115.808594 C 234.925781 116.050781 234.738281 116.277344 234.53125 116.484375 C 234.324219 116.691406 234.101562 116.875 233.855469 117.039062 C 233.613281 117.199219 233.355469 117.335938 233.085938 117.449219 C 232.816406 117.5625 232.535156 117.644531 232.25 117.703125 C 231.960938 117.761719 231.671875 117.789062 231.378906 117.789062 C 231.085938 117.789062 230.796875 117.761719 230.507812 117.703125 C 230.222656 117.644531 229.945312 117.5625 229.671875 117.449219 C 229.402344 117.335938 229.144531 117.199219 228.902344 117.039062 C 228.660156 116.875 228.433594 116.691406 228.226562 116.484375 C 228.019531 116.277344 227.835938 116.050781 227.671875 115.808594 C 227.507812 115.5625 227.371094 115.304688 227.261719 115.035156 C 227.148438 114.765625 227.0625 114.484375 227.007812 114.199219 C 226.949219 113.910156 226.921875 113.621094 226.921875 113.328125 C 226.921875 113.035156 226.949219 112.746094 227.007812 112.457031 C 227.0625 112.171875 227.148438 111.890625 227.261719 111.621094 C 227.371094 111.351562 227.507812 111.09375 227.671875 110.851562 C 227.835938 110.605469 228.019531 110.382812 228.226562 110.175781 C 228.433594 109.96875 228.660156 109.78125 228.902344 109.621094 C 229.144531 109.457031 229.402344 109.320312 229.671875 109.207031 C 229.945312 109.097656 230.222656 109.011719 230.507812 108.953125 C 230.796875 108.898438 231.085938 108.867188 231.378906 108.867188 C 231.671875 108.867188 231.960938 108.898438 232.25 108.953125 C 232.535156 109.011719 232.816406 109.097656 233.085938 109.207031 C 233.355469 109.320312 233.613281 109.457031 233.855469 109.621094 C 234.101562 109.78125 234.324219 109.96875 234.53125 110.175781 C 234.738281 110.382812 234.925781 110.605469 235.085938 110.851562 C 235.25 111.09375 235.386719 111.351562 235.5 111.621094 C 235.609375 111.890625 235.695312 112.171875 235.753906 112.457031 C 235.808594 112.746094 235.839844 113.035156 235.839844 113.328125 Z M 235.839844 113.328125 " fill-opacity="1" fill-rule="nonzero"/></svg>